# AST/ASF file generated using VICON BodyLanguage
# -----------------------------------------------
:version 1.10
:name VICON
:units
  mass 1.0
  length 0.45
  angle deg
:documentation
   .ast/.asf automatically generated from VICON data using
   VICON BodyBuilder and BodyLanguage model FoxedUp or BRILLIANT.MOD
:root
   order TX TY TZ RX RY RZ
   axis XYZ
   position 0 0 0  
   orientation 0 0 0 
:bonedata
  begin
     id 1 
     name lhipjoint
     direction 0.635376 -0.686425 0.353719 
     length 2.47244 
     axis 0 0 0  XYZ
  end
  begin
     id 2 
     name lfemur
     direction 0.34202 -0.939693 0  
     length 7.25268  
     axis 0 0 20  XYZ
    dof rx ry rz
    limits (-160.0 20.0)
           (-70.0 70.0)
           (-60.0 70.0)
  end
  begin
     id 3 
     name ltibia
     direction 0.34202 -0.939693 0   
     length 7.6767   
     axis 0 0 20   XYZ
    dof rx
    limits (-10.0 170.0)
  end
  begin
     id 4 
     name lfoot
     direction 0.0803374 -0.220725 0.972022   
     length 2.22945   
     axis -90 7.62852e-016 20   XYZ
    dof rx rz
    limits (-45.0 90.0)
           (-70.0 20.0)
  end
  begin
     id 5 
     name ltoes
     direction 1.53579e-011 -4.21994e-011 1   
     length 1.11848   
     axis -90 7.62852e-016 20   XYZ
    dof rx
    limits (-90.0 20.0)
  end
  begin
     id 6 
     name rhipjoint
     direction -0.664428 -0.664335 0.342336   
     length 2.55466  
     axis 0 0 0  XYZ 
  end
  begin
     id 7 
     name rfemur
     direction -0.34202 -0.939693 0   
     length 6.83172   
     axis 0 0 -20   XYZ
    dof rx ry rz
    limits (-160.0 20.0)
           (-70.0 70.0)
           (-70.0 60.0)
  end
  begin
     id 8 
     name rtibia
     direction -0.34202 -0.939693 0   
     length 7.62692   
     axis 0 0 -20   XYZ
    dof rx
    limits (-10.0 170.0)
 end
 begin
     id 9 
     name rfoot
     direction -0.0949276 -0.260811 0.960711   
     length 2.19684  
     axis -90 -7.62852e-016 -20   XYZ
    dof rx rz
    limits (-45.0 90.0)
           (-20.0 70.0)
  end
  begin
     id 10 
     name rtoes
     direction -1.53543e-011 -4.2183e-011 1   
     length 1.09848   
     axis -90 -7.62852e-016 -20   XYZ
    dof rx
    limits (-90.0 20.0)
  end
  begin
     id 11 
     name lowerback
     direction 0.0118782 0.999815 -0.0151555   
     length 2.15772   
     axis 0 0 0   XYZ
    dof rx ry rz
    limits (-20.0 45.0)
           (-30.0 30.0)
           (-30.0 30.0)
  end
  begin
     id 12 
     name upperback
     direction 0.00130825 0.999065 0.0432113   
     length 2.14863   
     axis 0 0 0   XYZ
    dof rx ry rz
    limits (-20.0 45.0)
           (-30.0 30.0)
           (-30.0 30.0)
  end
  begin
     id 13 
     name thorax
     direction -0.00347005 0.998773 0.0494011   
     length 2.14936   
     axis 0 0 0   XYZ
    dof rx ry rz
    limits (-20.0 45.0)
           (-30.0 30.0)
           (-30.0 30.0)
  end
  begin
     id 14 
     name lowerneck
     direction -0.0262159 0.99424 0.103921   
     length 1.69373   
     axis 0 0 0   XYZ
    dof rx ry rz
    limits (-20.0 45.0)
           (-30.0 30.0)
           (-30.0 30.0)
  end
  begin
     id 15 
     name upperneck
     direction 0.0353511 0.977394 -0.20845   
     length 1.70857   
     axis 0 0 0   XYZ
    dof rx ry rz
    limits (-20.0 45.0)
           (-30.0 30.0)
           (-30.0 30.0)
  end
  begin
     id 16
     name head
     direction 0.0139214 0.996594 -0.0812836  
     length 1.72777  
     axis 0 0 0   XYZ
    dof rx ry rz
    limits (-20.0 45.0)
           (-30.0 30.0)
           (-30.0 30.0)
  end
  begin
     id 17 
     name lclavicle
     direction 0.841247 0.537205 -0.0609508  
     length 3.55371  
     axis 0 0 0   XYZ
    dof ry rz
    limits (-20.0 10.0)
           (0.0 20.0)
  end
  begin
     id 18 
     name lhumerus
     direction 1 -4.48964e-011 1.60116e-018   
     length 4.91377   
     axis -180 -30 -90   XYZ
    dof rx ry rz
    limits (-60.0 90.0)
           (-90.0 90.0)
           (-90.0 90.0)
  end
  begin
     id 19
     name lradius
     direction 1 -4.48989e-011 -8.93847e-027   
     length 3.00291   
     axis -180 -30 -90   XYZ
    dof rx
    limits (-10.0 170.0)
  end
  begin
     id 20
     name lwrist
     direction 1 -4.48932e-011 -7.31504e-027   
     length 1.50145   
     axis 5.74121e-015 90 90   XYZ
    dof ry
    limits (-180.0 0.0)
 end
  begin
     id 21 
     name lhand
     direction 1 -4.48971e-011 -1.46301e-026   
     length 0.450922   
     axis 9.33524e-015 90 90   XYZ
    dof rx rz
    limits (-90.0 90.0)
           (-45.0 45.0)
  end
  begin
     id 22 
     name lfingers
     direction 1 -4.49039e-011 -2.92602e-026   
     length 0.363545   
     axis 1.86705e-014 90 90   XYZ
    dof rx
    limits (0.0 90.0)
  end
  begin
     id 23
     name lthumb
     direction 0.707107 -6.34941e-011 0.707107   
     length 0.52198   
     axis -90 45 2.85299e-015   XYZ
    dof rx rz
    limits (-45.0 45.0)
           (-45.0 45.0)
  end
  begin
     id 24 
     name rclavicle
     direction -0.825079 0.56158 -0.0622297   
     length 3.39909  
     axis 0 0 0   XYZ 
    dof ry rz
    limits (-10.0 20.0)
           (-20.0 0.0)
  end
  begin
     id 25 
     name rhumerus
     direction -1 -4.48965e-011 1.61691e-027  
     length 4.86725   
     axis -180 30 90   XYZ
    dof rx ry rz
    limits (-90.0 60.0)
           (-90.0 90.0)
           (-90.0 90.0)
  end
  begin
     id 26 
     name rradius
     direction -1 -4.48964e-011 -2.25776e-027   
     length 3.17144   
     axis -180 30 90   XYZ
    dof rx
    limits (-10.0 170.0)
  end
  begin
     id 27 
     name rwrist
     direction -1 -4.48961e-011 -7.31504e-027   
     length 1.58572   
     axis 5.74121e-015 -90 -90   XYZ
    dof ry
    limits (-180.0 0.0)
  end
  begin
     id 28
     name rhand
     direction -1 -4.49013e-011 -1.46301e-026   
     length 0.419368   
     axis 9.33524e-015 -90 -90   XYZ
    dof rx rz
    limits (-90.0 90.0)
           (-45.0 45.0)
  end
  begin
     id 29
     name rfingers
     direction -1 -4.489e-011 -2.92602e-026   
     length 0.338105   
     axis 1.86705e-014 -90 -90   XYZ
    dof rx
    limits (0.0 90.0)
  end
  begin
     id 30
     name rthumb
     direction -0.707107 -6.35022e-011 0.707107   
     length 0.485453   
     axis -90 -45 -2.85299e-015   XYZ
    dof rx rz
    limits (-45.0 45.0)
           (-45.0 45.0)
  end
:hierarchy
  begin
    root lhipjoint rhipjoint lowerback
    lhipjoint lfemur
    lfemur ltibia
    ltibia lfoot
    lfoot ltoes
    rhipjoint rfemur
    rfemur rtibia
    rtibia rfoot
    rfoot rtoes
    lowerback upperback
    upperback thorax
    thorax lowerneck lclavicle rclavicle
    lowerneck upperneck
    upperneck head
    lclavicle lhumerus
    lhumerus lradius
    lradius lwrist
    lwrist lhand lthumb
    lhand lfingers
    rclavicle rhumerus
    rhumerus rradius
    rradius rwrist
    rwrist rhand rthumb
    rhand rfingers
  end

#!OML:ASF H:\Swim 2\Project 1\Capture day 1\Session 1\male.ASF
:FULLY-SPECIFIED
:DEGREES
162
root 4.73952 14.8985 9.68677 97.7472 -32.0133 10.9895
lowerback -13.335 4.81226 10.7379
upperback -8.06308 5.43184 -8.53902
thorax 0.547229 2.36143 -14.8293
lowerneck -16.6044 -4.86839 -11.294
upperneck 25.172 -4.75709 4.37996
head 11.3399 -2.64315 2.81199
rclavicle 9.54166e-015 -2.8625e-014
rhumerus 66.1897 -7.78655 -29.9457
rradius 78.7884
rwrist -60.2571
rhand -36.7343 -10.0961
rfingers 7.12502
rthumb -9.81831 -39.8472
lclavicle 9.54166e-015 -2.8625e-014
lhumerus 84.8815 -1.79463 46.8955
lradius 77.7388
lwrist 53.7164
lhand -41.587 -10.8256
lfingers 7.12502
lthumb -14.4972 18.648
rfemur -51.5093 -5.21659 -17.7715
rtibia 40.7885
rfoot 8.21537 -30.3554
rtoes 31.6367
lfemur -50.9537 -2.37403 -7.13278
ltibia 29.6546
lfoot -26.8278 33.0084
ltoes 48.4491
163
root 4.71317 14.8954 9.69821 97.3283 -32.0239 11.1483
lowerback -12.9259 4.71477 10.92
upperback -7.89446 5.3162 -8.55037
thorax 0.485835 2.30233 -14.9978
lowerneck -16.4526 -4.75163 -11.1984
upperneck 25.3554 -4.66308 4.45162
head 11.3685 -2.58808 2.84202
rclavicle -6.04305e-014 1.19271e-014
rhumerus 66.8351 -8.59775 -29.0613
rradius 76.761
rwrist -60.8444
rhand -36.4462 -9.13193
rfingers 7.12502
rthumb -9.54034 -38.8959
lclavicle -6.04305e-014 1.19271e-014
lhumerus 85.8432 -0.712784 46.298
lradius 75.7164
lwrist 54.3903
lhand -41.0239 -11.0741
lfingers 7.12502
lthumb -13.9547 18.4376
rfemur -50.9287 -4.62019 -17.99
rtibia 39.0864
rfoot 8.59281 -31.2832
rtoes 31.968
lfemur -50.7747 -5.13781 -4.68296
ltibia 28.6581
lfoot -35.1079 29.6774
ltoes 51.6405
164
root 4.68662 14.8923 9.70768 96.8636 -32.0394 11.3386
lowerback -12.4885 4.59703 11.1055
upperback -7.71639 5.17602 -8.56975
thorax 0.41042 2.22964 -15.1841
lowerneck -16.3855 -4.66874 -11.0899
upperneck 25.613 -4.60981 4.51868
head 11.4456 -2.55055 2.86193
rclavicle -5.725e-014 5.725e-014
rhumerus 67.4436 -9.38849 -28.1594
rradius 74.7195
rwrist -61.4206
rhand -35.9801 -7.95697
rfingers 7.12502
rthumb -9.09063 -37.7411
lclavicle -5.725e-014 5.725e-014
lhumerus 86.8156 0.354118 45.6644
lradius 73.6502
lwrist 54.9645
lhand -40.3916 -11.3458
lfingers 7.12502
lthumb -13.3453 18.2068
rfemur -50.3559 -4.02827 -18.1975
rtibia 37.516
rfoot 8.81059 -32.2573
rtoes 32.3524
lfemur -50.7498 -8.24282 -1.99254
ltibia 27.7904
lfoot -42.7718 24.9629
ltoes 54.0105
165
root 4.66 14.889 9.71376 96.3814 -32.0549 11.538
lowerback -12.032 4.46922 11.2865
upperback -7.5364 5.02549 -8.59533
thorax 0.32158 2.15066 -15.3773
lowerneck -16.4119 -4.63168 -10.9834
upperneck 25.9558 -4.6165 4.60599
head 11.5805 -2.53733 2.88086
rclavicle -1.90833e-014 -1.16885e-013
rhumerus 68.0214 -10.1841 -27.2438
rradius 72.6404
rwrist -61.8985
rhand -35.3003 -6.806
rfingers 7.12502
rthumb -8.43463 -36.6176
lclavicle -1.90833e-014 -1.16885e-013
lhumerus 87.8015 1.39796 44.9725
lradius 71.5424
lwrist 55.3363
lhand -39.8176 -11.5456
lfingers 7.12502
lthumb -12.7919 18.0425
rfemur -49.8311 -3.44237 -18.3811
rtibia 36.0964
rfoot 8.85121 -33.2558
rtoes 32.8297
lfemur -50.9227 -11.5518 0.87665
ltibia 27.0592
lfoot -49.348 19.7286
ltoes 55.55
166
root 4.63297 14.8856 9.71623 95.8742 -32.0676 11.7414
lowerback -11.5407 4.33033 11.4587
upperback -7.35065 4.86513 -8.6249
thorax 0.214517 2.06565 -15.5725
lowerneck -16.4845 -4.59709 -10.8104
upperneck 26.3165 -4.62303 4.62763
head 11.7288 -2.52483 2.86396
rclavicle 6.36111e-015 -5.725e-014
rhumerus 68.5433 -10.9493 -26.3865
rradius 70.5554
rwrist -62.1289
rhand -34.4455 -5.90875
rfingers 7.12502
rthumb -7.60954 -35.7519
lclavicle 6.36111e-015 -5.725e-014
lhumerus 88.798 2.4234 44.2015
lradius 69.4005
lwrist 55.4623
lhand -39.3899 -11.615
lfingers 7.12502
lthumb -12.3796 17.9984
rfemur -49.3582 -2.85892 -18.5286
rtibia 34.8404
rfoot 8.76086 -34.2485
rtoes 33.4828
lfemur -51.2697 -14.7733 3.7128
ltibia 26.4745
lfoot -54.6975 15.0329
ltoes 56.422
